<svg xmlns="http://www.w3.org/2000/svg" viewBox="0 0 512 512" role="img" aria-label="HMG Academy CBT icon">
  <defs>
    <linearGradient id="g" x1="0" x2="1" y1="0" y2="1">
      <stop offset="0" stop-color="#10b981"/>
      <stop offset="0.48" stop-color="#3b82f6"/>
      <stop offset="1" stop-color="#8b5cf6"/>
    </linearGradient>
    <filter id="shadow" x="-20%" y="-20%" width="140%" height="140%">
      <feDropShadow dx="0" dy="18" stdDeviation="22" flood-color="#000" flood-opacity="0.35"/>
    </filter>
  </defs>
  <rect width="512" height="512" rx="110" fill="#09090b"/>
  <circle cx="256" cy="256" r="214" fill="url(#g)" opacity="0.16"/>
  <g filter="url(#shadow)">
    <path d="M118 185c57-16 102-3 138 39 36-42 81-55 138-39v154c-57-16-102-3-138 39-36-42-81-55-138-39V185Z" fill="#f8fafc"/>
    <path d="M141 212c39-7 72 5 100 36v83c-28-24-61-33-100-27v-92Zm230 0c-39-7-72 5-100 36v83c28-24 61-33 100-27v-92Z" fill="url(#g)"/>
    <path d="M256 123 140 172l116 49 116-49-116-49Z" fill="#111827" stroke="#60a5fa" stroke-width="8"/>
    <path d="M337 185v69" stroke="#f59e0b" stroke-width="14" stroke-linecap="round"/>
    <circle cx="337" cy="263" r="17" fill="#f59e0b"/>
  </g>
  <text x="256" y="438" text-anchor="middle" fill="#f8fafc" font-family="Arial, sans-serif" font-weight="900" font-size="62">HMG</text>
</svg>
